# xmcd
#
# Track frame offsets: 
#        182
#        38507
#        54245
#        76552
#        115230
#        131767
#        156990
#        217307
#        264322
#
# Disc length: 4088 seconds
#
# Revision: 1
# Processed by: cddbd v1.5.2PL0 Copyright (c) Steve Scherf et al.
# Submitted via: ExactAudioCopyFreeDBPlugin 1.0
#
DISCID=720ff609
DTITLE=Flotow - Martha - Wallberg - Popp, Nimsgern, Jerusalem, Soffel 
DTITLE=CD1
DYEAR=1900
DGENRE=opera
TTITLE0=Münchner Rundfunkorchester, Cond. Heinz Wallberg - Ouvertüre
TTITLE1=Dienerinnen, Doris Soffel (Nancy), Lucia Popp (Lady Harriet Du
TTITLE1=rham), Münchner Rundfunkorchester, Cond. Heinz Wallberg - Darf
TTITLE1=mit mächtig düstren Träumen
TTITLE2=Doris Soffel (Nancy), Lucia Popp (Lady Harriet Durham), Münchn
TTITLE2=er Rundfunkorchester, Cond. Heinz Wallberg - Teure Lady - Von 
TTITLE2=den edlen Kavalieren
TTITLE3=Diener, Lucia Popp (Lady Harriet Durham), Siegmund Nimsgern (L
TTITLE3=ord Tristan Mickleford), Doris Soffel (Nancy), Mädge, Münchner
TTITLE3=Rundfunkorchester, Cond. Heinz Wallberg - Gnaden Tristan Mick
TTITLE3=leford - Schöne Lady und Cousine
TTITLE4=Mägde, Pächter, Münchner Rundfunkorchester, Cond. Heinz Wallbe
TTITLE4=rg - Mädchen, brav und treu - Wohlgemut, junges Blut
TTITLE5=Karl Ridderbusch (Plumkett), Siegfried Jerusalem (Lyonel), Mün
TTITLE5=chner Rundfunkorchester, Cond. Heinz Wallberg - Wie das schnat
TTITLE5=tert, wie das plappert - Ja! Seit früher Kindheit Tagen
TTITLE6=Peter Lika (Richter zu Richmond), Mägde, Pächter, Lucia Popp (
TTITLE6=Lady Harriet Durham), Doris Soffel (Nancy), Siegmund Nimsgern 
TTITLE6=(Lord Tristan Mickleford), Karl Ridderbusch (Plumkett), Siegfr
TTITLE6=ied Jerusalem (Lyonel), Münchner Rundfunkorchester, Heinz Wall
TTITLE6=berg - Der Markt beginnt - Ich kann nähen - Vorwärts, Bob - Si
TTITLE6=eh nur, wie sie uns betrachten! - Nun fürwahr,das lass ich gel
TTITLE6=ten
TTITLE7=Karl Ridderbusch (Plumkett), Siegfried Jerusalem (Lyonel), Luc
TTITLE7=ia Popp (Lady Harriet Durham), Doris Soffel (Nancy), Münchner 
TTITLE7=Rundfunkorchester, Cond. Heinz Wallberg - Act 2 - Nur näher, b
TTITLE7=löde Mädchen - Mädels, dort ist eure Kammer - Was soll ich daz
TTITLE7=u sagen?
TTITLE8=Lucia Popp (Lady Harriet Durham), Siegfried Jerusalem (Lyonel)
TTITLE8=, Münchner Rundfunkorchester, Cond. Heinz Wallberg - Nancy! - 
TTITLE8=Julia! Verweile! - Blickt sein Auge doch so ehrlich - Letzte R
TTITLE8=ose, wie magst du so einsam hier blühn?
EXTD=
EXTT0=
EXTT1=
EXTT2=
EXTT3=
EXTT4=
EXTT5=
EXTT6=
EXTT7=
EXTT8=
PLAYORDER=
